# xmcd
#
# Track frame offsets:
#	150
#	16039
#	45332
#	81499
#	105400
#	141620
#	167206
#	203553
#
# Disc length: 2816 seconds
#
# Revision: 0
# Processed by: cddbd v1.5.2PL0 Copyright (c) Steve Scherf et al.
# Submitted via: EasyCDDAExtractor 9.0.0.1
#
DISCID=610afe08
DTITLE=Black Sabbath - Taylor County Coliseum Abilene 07-12-78
DYEAR=1978
DGENRE=Hard Rock
TTITLE0=Symptom Of The Universe
TTITLE1=Snowblind
TTITLE2=War Pigs
TTITLE3=Never Say Die
TTITLE4=Black Sabbath
TTITLE5=Shock Waves
TTITLE6=Dirty Women
TTITLE7=Rock 'N' Roll Doctor
EXTD=
EXTT0=
EXTT1=
EXTT2=
EXTT3=
EXTT4=
EXTT5=
EXTT6=
EXTT7=
PLAYORDER=
